<svg xmlns="http://www.w3.org/2000/svg" viewBox="0 0 581.91 581.91">
  <circle fill="#d90b3e" stroke="#fff" stroke-miterlimit="10" cx="290.96" cy="290.96" r="290.46"/>

  <path fill="#fff" d="M284.72,112.35c1.66-3.68,5.31-4.84,8.93-5.81,36.63,59.66,91.64,106.14,151.57,141.31-.23,40.74.03,81.46-.13,122.2-1.89.46-5.71,1.33-7.63,1.79-20.8-18.28-35-42.97-43.7-69.01-22.1-.56-44.2-.13-66.29-.27-46.48.1-92.9-.8-139.36.27-8.53,26.08-22.96,50.63-43.53,69.01-1.92-.43-5.81-1.33-7.76-1.76-.27-40.68.1-81.39-.2-122.07,57.9-34.31,111.35-78.67,148.11-135.67"/>
  <path fill="#fff" d="M240.79,244.81c33.48.13,66.96.2,100.47-.03"/>
  <path fill="#fff" d="M371.41,256.45c.1,11.58.07,23.23.07,34.84,38.85.1-61.17,0-22.29.07-.03-11.68-.07-23.33,0-34.97-38.89.17-77.81.07-116.69.07"/>
  <path fill="#fff" d="M136.67,393.85c12.38-9.59,23.13-21.1,34.84-31.42,1.09.93,3.28,2.79,4.35,3.72,8.23,20.44,12.58,42.4,14.13,64.37,67.29-.07,134.58-.07,201.87,0,1.82-22.53,5.91-45.42,15.16-66.13l3.75-1.63c11.58,10.19,22.13,21.6,34.41,31.06-.1,12.21-.03,24.39-.07,36.6,4.55.17,9.09.37,13.67.6,1.16,6.14-1.63,11.61-8.56,9.99-106.21.03-212.45.07-318.66,0-7.1,1.92-9.06-4.15-8.63-9.99,4.58-.23,9.19-.43,13.84-.6-.13-12.18-.13-24.39-.1-36.56"/>
  <path fill="#fff" d="M275.64,162.92c5.72-6.04,9-15.26,17.76-17.82,37.28,54.41,92.9,94.6,151.59,125.29-.91,14.88,4.59,33.58-9.15,44.48-11.34,9.63-28.74,6.69-38.28-3.8-10.86,12.7-31.47,12.61-42.39.09-10.95,12.64-31.72,12.73-42.66.09-11.04,12.43-31.93,12.79-42.6-.29-10.73,12.99-31.59,12.82-42.6.27-11.07,12.55-31.78,12.49-42.57-.29-7.75,8.48-19.28,11.43-30.62,9.25-7.27-4.95-15.27-10.78-16.39-20-.85-9.9-.3-19.89-.36-29.78,52.36-27.01,101.38-62.1,138.3-107.47"/>
</svg>
