<?xml version="1.0" encoding="UTF-8"?>
<svg id="Capa_2" data-name="Capa 2" xmlns="http://www.w3.org/2000/svg" viewBox="0 0 204.97 303.68">
  <g id="Layer_1" data-name="Layer 1">
    <path d="M0,77.48C.01,49.76,22.48,27.3,50.2,27.29h104.56c27.73,0,50.21,22.48,50.21,50.21,0,2.46-.18,4.91-.54,7.34l-21.85,148.69c-3.73,24.58-24.8,42.78-49.66,42.9h-60.92c-24.86-.12-45.94-18.32-49.67-42.9L.52,84.84C.17,82.4,0,79.94,0,77.48ZM189,77.48c0-18.88-15.31-34.19-34.19-34.19H50.19c-18.9.01-34.21,15.34-34.2,34.24,0,1.65.12,3.31.36,4.94l21.85,148.69c2.55,16.73,16.88,29.12,33.8,29.22h60.92c16.93-.08,31.29-12.48,33.83-29.22l21.85-148.7c.25-1.65.39-3.31.4-4.98Z"/>
    <path d="M67.61,35.29v-18.78c.01-9.11,7.4-16.5,16.51-16.51h36.71c9.12,0,16.5,7.39,16.51,16.51v18.78c0,4.42-3.58,8-8,8s-8-3.58-8-8v-18.78c0-.28-.23-.51-.51-.51h-36.71c-.28,0-.51.23-.51.51h0v18.78c0,4.42-3.58,8-8,8s-8-3.58-8-8h0Z"/>
    <path d="M67.61,287.17v-18.78c0-4.42,3.58-8,8-8s8,3.58,8,8v18.78c0,.28.23.51.51.51h36.71c.28,0,.51-.23.51-.51h0v-18.78c0-4.42,3.58-8,8-8s8,3.58,8,8v18.78c0,9.12-7.39,16.5-16.51,16.51h-36.71c-9.11-.01-16.5-7.4-16.51-16.51Z"/>
    <path d="M14.37,178.49c0-3.53,2.32-6.64,5.7-7.66l167.63-50.59c4.26-1.17,8.66,1.33,9.83,5.59,1.13,4.11-1.16,8.38-5.2,9.72L24.69,186.15c-4.23,1.29-8.7-1.09-9.99-5.31,0-.01,0-.02-.01-.04-.22-.75-.33-1.53-.32-2.31Z"/>
    <path d="M16.49,192.89h0c0-4.42,3.58-8,8-8h0l155.94.24c4.42,0,8,3.58,8,8h0c0,4.42-3.58,8-8,8l-155.93-.24c-4.42,0-8-3.57-8.01-7.99h0Z"/>
    <path d="M2.81,99.74v-.33c.18-4.41,3.91-7.84,8.32-7.66l182.25,7.47c4.42.18,7.85,3.91,7.68,8.32s-3.91,7.85-8.32,7.68l-182.25-7.48c-4.29-.18-7.67-3.71-7.67-8Z"/>
    <path d="M.17,81.48c0-3.77,2.64-7.02,6.33-7.81l172.84-37.05c4.32-.93,8.58,1.82,9.5,6.15.93,4.32-1.82,8.58-6.14,9.5L9.85,89.27c-4.32.93-8.57-1.82-9.5-6.14-.12-.54-.18-1.1-.18-1.65Z"/>
    <path d="M39.73,260.68c0-3.42,2.16-6.46,5.39-7.57l129.32-44.56c4.18-1.44,8.73.78,10.18,4.96,1.44,4.18-.78,8.73-4.96,10.17l-129.32,44.56c-4.18,1.43-8.73-.79-10.16-4.97,0,0,0-.02,0-.03-.29-.82-.44-1.69-.44-2.56Z"/>
  </g>
</svg>