<?xml version="1.0" encoding="UTF-8"?>
<svg id="Capa_2" data-name="Capa 2" xmlns="http://www.w3.org/2000/svg" viewBox="0 0 1294.84 1484.47">
  <g id="Layer_1" data-name="Layer 1">
    <path d="M1146.83,714.63c15.71,13.75,36.26,22.08,58.72,22.08,49.23,0,89.29-40.06,89.29-89.29s-40.06-89.29-89.29-89.29c-22.46,0-43.01,8.33-58.72,22.08-5.89-44.33-17.65-87.48-35.17-128.91-16.6-39.24-37.88-75.86-63.57-109.45,21.59-1.42,41.69-10.51,57.13-25.95,16.86-16.86,26.15-39.29,26.15-63.14s-9.29-46.27-26.15-63.14c-16.87-16.86-39.29-26.15-63.14-26.15s-46.28,9.29-63.14,26.15c-15.44,15.44-24.53,35.54-25.96,57.12-33.59-25.68-70.2-46.96-109.44-63.56-41.43-17.52-84.58-29.28-128.91-35.17,13.75-15.71,22.08-36.26,22.08-58.72,0-49.24-40.05-89.29-89.29-89.29s-89.29,40.05-89.29,89.29c0,22.46,8.33,43.01,22.08,58.72-44.32,5.89-87.47,17.65-128.91,35.17-39.25,16.6-75.88,37.89-109.48,63.59-1.39-20.82-10.03-41.26-25.92-57.15-34.81-34.81-91.46-34.81-126.27,0-34.82,34.82-34.82,91.47,0,126.28,15.88,15.89,36.32,24.53,57.15,25.91-25.7,33.6-46.99,70.24-63.59,109.49-17.53,41.43-29.29,84.58-35.17,128.91-15.71-13.75-36.26-22.08-58.73-22.08-49.23,0-89.29,40.05-89.29,89.29s40.06,89.29,89.29,89.29c22.47,0,43.02-8.33,58.73-22.08,5.88,44.32,17.64,87.47,35.17,128.91,16.6,39.25,37.88,75.88,63.58,109.48-20.82,1.39-41.25,10.03-57.14,25.92-34.82,34.81-34.82,91.46,0,126.27,17.4,17.41,40.27,26.11,63.13,26.11s45.74-8.7,63.14-26.11c15.89-15.89,24.53-36.32,25.92-57.14,33.6,25.7,70.23,46.98,109.48,63.58.43.18.85.36,1.28.53h0l-127.81,337.28H89.29c-9.66,0-17.5,7.83-17.5,17.5s7.84,17.5,17.5,17.5h247.39c.05,0,.11,0,.16,0,.06,0,.13,0,.19,0h620.77c.06,0,.13,0,.19,0,.05,0,.11,0,.16,0h289.07c9.67,0,17.5-7.83,17.5-17.5s-7.83-17.5-17.5-17.5h-277.16l-127.81-337.28s0,0,0,0c.43-.17.85-.35,1.27-.53,39.24-16.59,75.85-37.87,109.44-63.55.65,9.79,2.87,19.28,6.55,28.16,4.43,10.7,10.97,20.52,19.41,28.95,16.86,16.87,39.29,26.16,63.14,26.16s46.27-9.29,63.14-26.16c16.86-16.86,26.15-39.28,26.15-63.14s-9.29-46.27-26.15-63.13c-15.44-15.44-35.54-24.53-57.12-25.96,25.68-33.59,46.96-70.2,63.56-109.44,17.52-41.44,29.28-84.59,35.17-128.91ZM1115.94,629.92h-388.05c-2.11-9.76-5.96-18.87-11.21-27.01h0s274.24-274.24,274.24-274.24c74.04,79.72,120.74,185.16,125.02,301.25ZM629.92,743v372.93h0c-46.04-1.7-90.42-10.07-132.17-24.17,0,0,0,0,0,0l132.17-348.76ZM664.92,1115.93v-372.95l132.18,348.78c-41.76,14.1-86.13,22.47-132.18,24.17ZM966.18,303.92l-274.24,274.24s0,0,0,0c-8.14-5.25-17.25-9.1-27.01-11.21V178.9c116.09,4.28,221.54,50.98,301.25,125.02ZM629.92,178.9s0,0,0,0v388.05s0,0,0,0c-9.76,2.11-18.87,5.97-27.01,11.21l-274.25-274.25h0c79.72-74.03,185.16-120.73,301.25-125.01ZM303.92,328.66l274.25,274.25c-5.24,8.14-9.1,17.25-11.21,27.01H178.91c4.28-116.09,50.98-221.54,125.01-301.26ZM178.91,664.92h0s388.05,0,388.05,0c0,0,0,0,0,0,2.11,9.75,5.97,18.86,11.21,27l-274.25,274.25h0c-74.04-79.72-120.73-185.16-125.01-301.25ZM328.67,990.92s0,0,0,0l273.53-273.53-137.16,361.92c-50.6-21.44-96.67-51.53-136.36-88.4ZM932.65,1449.46H362.19l123.11-324.87s0,0,0,0c30.87,10.51,62.57,17.93,94.9,22.22-13.75,15.71-22.08,36.26-22.08,58.73,0,49.23,40.06,89.29,89.29,89.29s89.29-40.06,89.29-89.29c0-22.47-8.33-43.02-22.08-58.73,32.34-4.29,64.04-11.71,94.91-22.22,0,0,0,0,0,0l123.11,324.87ZM829.81,1079.32l-137.16-361.92,273.52,273.52s0,0,0,0c-39.69,36.87-85.77,66.95-136.36,88.4ZM990.92,966.17h0s-274.24-274.24-274.24-274.24c5.24-8.14,9.1-17.25,11.21-27.01h388.05c-4.28,116.09-50.98,221.53-125.02,301.25Z"/>
  </g>
</svg>